<svg xmlns="http://www.w3.org/2000/svg" xmlns:xlink="http://www.w3.org/1999/xlink" width="1000" zoomAndPan="magnify" viewBox="0 0 750 749.999995" height="1000" preserveAspectRatio="xMidYMid meet" version="1.0">
<defs><clipPath id="d8912e8468"><path d="M 167 251.339844 L 684.90625 251.339844 L 684.90625 497.734375 L 167 497.734375 Z M 167 251.339844 " clip-rule="nonzero"/></clipPath><clipPath id="fbff98ba34"><path d="M 149 464 L 393 464 L 393 693.75 L 149 693.75 Z M 149 464 " clip-rule="nonzero"/></clipPath></defs><path fill="#ffffff" d="M 171.058594 237.738281 C 173.273438 243.488281 176.167969 248.59375 179.863281 253.265625 C 205.328125 209.113281 237.1875 171.195312 274.628906 140.519531 C 312.714844 109.347656 355.308594 87.164062 398.632812 75.824219 C 391.101562 75.277344 383.542969 75 376.027344 75 C 304.839844 75 235.257812 99.84375 180.015625 144.980469 C 175.953125 155.414062 172.726562 165.625 170.417969 175.332031 C 167.050781 189.542969 165.675781 202.625 166.328125 214.234375 C 166.816406 222.84375 168.40625 230.761719 171.058594 237.738281 " fill-opacity="1" fill-rule="nonzero"/><path fill="#ffffff" d="M 202.511719 271.433594 C 204.921875 272.703125 207.355469 273.839844 209.898438 274.921875 C 217.898438 278.238281 227.167969 280.871094 237.433594 282.765625 C 250.835938 285.21875 265.820312 286.476562 281.964844 286.476562 C 281.984375 286.476562 281.984375 286.476562 281.984375 286.476562 C 291.777344 286.476562 302.296875 286.011719 313.222656 285.113281 C 337.910156 283.074219 365.328125 278.828125 399.492188 271.765625 C 424.644531 266.570312 450.742188 260.394531 475.980469 254.40625 C 510.769531 246.167969 546.753906 237.648438 580.941406 231.542969 C 602.996094 227.628906 622.390625 225.046875 640.078125 223.679688 C 605.851562 167.191406 555.488281 123.996094 494.195312 98.617188 L 491.9375 97.707031 L 491.132812 97.308594 C 482.566406 96.253906 473.796875 95.710938 465.0625 95.710938 C 457.910156 95.710938 450.640625 96.078125 443.414062 96.78125 C 408.832031 100.140625 374.320312 111.296875 340.867188 129.914062 C 285.726562 160.578125 236.660156 210.769531 202.511719 271.433594 " fill-opacity="1" fill-rule="nonzero"/><path fill="#ffffff" d="M 165.585938 280.132812 C 162.96875 277.621094 160.5 274.953125 158.234375 272.1875 C 149.140625 261.027344 142.960938 247.769531 139.875 232.769531 C 138.097656 224.117188 137.316406 214.789062 137.546875 205.050781 C 137.710938 198.574219 138.316406 191.988281 139.359375 185.070312 C 119 209.253906 102.515625 236.398438 90.3125 265.859375 C 86.707031 274.566406 83.460938 283.570312 80.652344 292.597656 C 98.269531 307.113281 119.0625 321.902344 142.515625 336.59375 C 145.925781 326.265625 149.789062 315.90625 154 305.734375 C 157.492188 297.308594 161.386719 288.710938 165.585938 280.132812 " fill-opacity="1" fill-rule="nonzero"/><g clip-path="url(#d8912e8468)"><path fill="#ffffff" d="M 655.074219 251.511719 C 631.058594 252.5625 603.039062 256.28125 569.496094 262.863281 C 541.5 268.363281 511.820312 275.386719 483.113281 282.1875 C 443.09375 291.667969 401.699219 301.484375 362.054688 307.875 C 331.605469 312.765625 305.414062 315.148438 281.984375 315.148438 C 263.925781 315.148438 247.652344 313.773438 232.257812 310.957031 C 220.054688 308.730469 208.851562 305.503906 198.929688 301.394531 C 195.726562 300.074219 192.488281 298.578125 189.3125 296.921875 C 186.304688 303.207031 183.335938 309.84375 180.492188 316.703125 C 175.800781 327.988281 171.523438 339.789062 167.738281 351.769531 C 208.007812 375.125 253.011719 397.15625 301.503906 417.238281 C 311.449219 421.363281 321.550781 425.390625 331.808594 429.371094 C 387.371094 450.804688 444.230469 468.316406 496.253906 480.023438 C 545.984375 491.214844 591.476562 497.132812 627.789062 497.132812 L 627.945312 497.132812 C 641.46875 497.132812 653.800781 496.28125 664.621094 494.601562 C 694.683594 416.066406 691.210938 327.636719 655.074219 251.511719 " fill-opacity="1" fill-rule="nonzero"/></g><g clip-path="url(#fbff98ba34)"><path fill="#ffffff" d="M 198.335938 519.882812 C 189.027344 508.546875 179.796875 497.285156 170.441406 486.242188 C 163.457031 477.964844 156.347656 470.699219 149.277344 464.585938 C 149.078125 478.234375 149.636719 491.828125 150.945312 505.042969 C 155.6875 552.757812 170.265625 597.1875 193.105469 633.550781 C 212.984375 648.101562 234.660156 660.289062 257.554688 669.769531 C 295.371094 685.449219 335.128906 693.398438 375.730469 693.398438 C 381.222656 693.398438 386.738281 693.242188 392.226562 692.945312 C 349.816406 672.320312 311.816406 644.375 273.328125 605.5625 C 246.082031 578.082031 221.804688 548.496094 198.335938 519.882812 " fill-opacity="1" fill-rule="nonzero"/></g><path fill="#ffffff" d="M 540.296875 517.828125 C 473.503906 506.898438 397.839844 485.5625 321.480469 456.128906 C 311.015625 452.082031 300.683594 447.957031 290.535156 443.742188 C 243.578125 424.277344 199.640625 402.957031 159.882812 380.335938 C 156 396.710938 153.140625 413.472656 151.378906 430.203125 C 165.273438 439.382812 179.039062 452.007812 192.34375 467.734375 C 201.820312 478.964844 211.140625 490.3125 220.433594 501.628906 C 243.617188 529.878906 267.59375 559.089844 293.683594 585.375 C 335.625 627.628906 377.183594 656.453125 424.496094 676.070312 C 431.6875 679.058594 439.371094 681.925781 447.921875 684.820312 C 536.21875 663.59375 610.027344 605.46875 651.089844 524.980469 C 643.871094 525.507812 636.082031 525.785156 627.730469 525.796875 C 602.121094 525.796875 572.695312 523.125 540.296875 517.828125 " fill-opacity="1" fill-rule="nonzero"/><path fill="#ffffff" d="M 93.753906 411.378906 C 103.804688 411.378906 113.992188 413.117188 124.09375 416.589844 C 126.351562 399.425781 129.710938 382.117188 134.113281 365.105469 C 111.34375 351.128906 90.746094 337.003906 72.820312 323.066406 C 66.683594 353.386719 65.148438 384.335938 68.28125 415.175781 C 74.683594 413.246094 81.171875 412.050781 87.570312 411.597656 C 89.597656 411.457031 91.652344 411.378906 93.753906 411.378906 " fill-opacity="1" fill-rule="nonzero"/><path fill="#ffffff" d="M 121.269531 446.222656 C 120.660156 445.953125 120.054688 445.679688 119.445312 445.4375 C 111.949219 442.320312 104.707031 440.585938 97.332031 440.144531 C 96.113281 440.078125 94.9375 440.035156 93.765625 440.035156 C 88.839844 440.035156 83.847656 440.667969 78.953125 441.925781 C 76.839844 442.460938 74.738281 443.132812 72.589844 443.941406 C 82.574219 494.433594 104.925781 541.566406 137.515625 581.101562 C 136.332031 577.429688 135.203125 573.75 134.144531 570.054688 C 123.050781 531.070312 118.722656 489.414062 121.269531 446.222656 " fill-opacity="1" fill-rule="nonzero"/></svg>