<svg xmlns="http://www.w3.org/2000/svg" xmlns:xlink="http://www.w3.org/1999/xlink" width="1000" zoomAndPan="magnify" viewBox="0 0 750 749.999995" height="1000" preserveAspectRatio="xMidYMid meet" version="1.0"><defs><clipPath id="98c7aa4100"><path d="M 167 251.441406 L 685.210938 251.441406 L 685.210938 497.972656 L 167 497.972656 Z M 167 251.441406 " clip-rule="nonzero"/></clipPath><clipPath id="3d62327263"><path d="M 149 464 L 393 464 L 393 693.75 L 149 693.75 Z M 149 464 " clip-rule="nonzero"/></clipPath></defs><path fill="#000000" d="M 171.113281 237.832031 C 173.324219 243.585938 176.222656 248.691406 179.917969 253.367188 C 205.394531 209.191406 237.273438 171.25 274.730469 140.554688 C 312.835938 109.367188 355.449219 87.171875 398.796875 75.824219 C 391.261719 75.277344 383.699219 75 376.179688 75 C 304.957031 75 235.339844 99.859375 180.070312 145.023438 C 176.007812 155.460938 172.777344 165.675781 170.46875 175.390625 C 167.097656 189.609375 165.726562 202.699219 166.378906 214.3125 C 166.867188 222.925781 168.457031 230.847656 171.113281 237.832031 " fill-opacity="1" fill-rule="nonzero"/><path fill="#000000" d="M 202.578125 271.546875 C 204.988281 272.816406 207.425781 273.953125 209.96875 275.035156 C 217.976562 278.351562 227.246094 280.988281 237.515625 282.886719 C 250.925781 285.339844 265.917969 286.59375 282.074219 286.59375 C 282.089844 286.59375 282.089844 286.59375 282.089844 286.59375 C 291.890625 286.59375 302.414062 286.132812 313.34375 285.230469 C 338.046875 283.191406 365.476562 278.941406 399.65625 271.875 C 424.820312 266.679688 450.933594 260.5 476.179688 254.507812 C 510.988281 246.265625 546.992188 237.742188 581.195312 231.632812 C 603.261719 227.714844 622.664062 225.132812 640.359375 223.761719 C 606.117188 167.242188 555.726562 124.023438 494.40625 98.632812 L 492.144531 97.71875 L 491.34375 97.320312 C 482.769531 96.265625 473.996094 95.722656 465.257812 95.722656 C 458.101562 95.722656 450.828125 96.09375 443.601562 96.796875 C 409 100.15625 374.472656 111.316406 341 129.945312 C 285.835938 160.628906 236.742188 210.847656 202.578125 271.546875 " fill-opacity="1" fill-rule="nonzero"/><path fill="#000000" d="M 165.636719 280.25 C 163.015625 277.734375 160.546875 275.066406 158.28125 272.300781 C 149.179688 261.132812 142.996094 247.867188 139.910156 232.859375 C 138.136719 224.203125 137.351562 214.871094 137.582031 205.125 C 137.75 198.644531 138.351562 192.054688 139.394531 185.132812 C 119.027344 209.332031 102.535156 236.488281 90.324219 265.964844 C 86.71875 274.679688 83.46875 283.6875 80.660156 292.722656 C 98.285156 307.242188 119.089844 322.042969 142.554688 336.742188 C 145.964844 326.410156 149.832031 316.042969 154.042969 305.867188 C 157.535156 297.433594 161.433594 288.832031 165.636719 280.25 " fill-opacity="1" fill-rule="nonzero"/><g clip-path="url(#98c7aa4100)"><path fill="#000000" d="M 655.363281 251.609375 C 631.339844 252.664062 603.304688 256.382812 569.742188 262.96875 C 541.734375 268.472656 512.042969 275.5 483.320312 282.304688 C 443.28125 291.792969 401.863281 301.613281 362.199219 308.007812 C 331.734375 312.898438 305.53125 315.28125 282.089844 315.28125 C 264.023438 315.28125 247.742188 313.910156 232.339844 311.089844 C 220.132812 308.863281 208.921875 305.632812 198.996094 301.523438 C 195.789062 300.199219 192.550781 298.703125 189.375 297.046875 C 186.363281 303.335938 183.394531 309.976562 180.546875 316.839844 C 175.855469 328.132812 171.574219 339.9375 167.789062 351.925781 C 208.078125 375.296875 253.105469 397.339844 301.621094 417.433594 C 311.570312 421.558594 321.675781 425.589844 331.9375 429.570312 C 387.527344 451.015625 444.417969 468.539062 496.464844 480.253906 C 546.222656 491.449219 591.734375 497.375 628.066406 497.375 L 628.222656 497.375 C 641.75 497.375 654.089844 496.519531 664.914062 494.839844 C 694.992188 416.257812 691.519531 327.777344 655.363281 251.609375 " fill-opacity="1" fill-rule="nonzero"/></g><g clip-path="url(#3d62327263)"><path fill="#000000" d="M 198.398438 520.136719 C 189.085938 508.792969 179.855469 497.523438 170.492188 486.472656 C 163.507812 478.195312 156.394531 470.925781 149.316406 464.804688 C 149.121094 478.464844 149.675781 492.0625 150.988281 505.285156 C 155.734375 553.03125 170.320312 597.484375 193.167969 633.867188 C 213.054688 648.425781 234.742188 660.621094 257.648438 670.109375 C 295.484375 685.796875 335.261719 693.75 375.882812 693.75 C 381.378906 693.75 386.898438 693.59375 392.386719 693.296875 C 349.957031 672.65625 311.9375 644.699219 273.429688 605.863281 C 246.167969 578.367188 221.882812 548.761719 198.398438 520.136719 " fill-opacity="1" fill-rule="nonzero"/></g><path fill="#000000" d="M 540.527344 518.078125 C 473.703125 507.144531 398.003906 485.792969 321.605469 456.347656 C 311.136719 452.296875 300.796875 448.171875 290.644531 443.949219 C 243.667969 424.476562 199.707031 403.144531 159.929688 380.507812 C 156.042969 396.894531 153.183594 413.667969 151.421875 430.40625 C 165.324219 439.589844 179.09375 452.222656 192.40625 467.960938 C 201.886719 479.195312 211.210938 490.546875 220.511719 501.871094 C 243.707031 530.136719 267.695312 559.367188 293.796875 585.664062 C 335.757812 627.945312 377.339844 656.78125 424.671875 676.410156 C 431.867188 679.402344 439.554688 682.269531 448.109375 685.167969 C 536.449219 663.929688 610.296875 605.769531 651.375 525.234375 C 644.152344 525.765625 636.359375 526.042969 628.007812 526.050781 C 602.382812 526.050781 572.945312 523.378906 540.527344 518.078125 " fill-opacity="1" fill-rule="nonzero"/><path fill="#000000" d="M 93.769531 411.570312 C 103.824219 411.570312 114.015625 413.308594 124.121094 416.78125 C 126.382812 399.609375 129.742188 382.292969 134.148438 365.269531 C 111.367188 351.289062 90.757812 337.152344 72.824219 323.210938 C 66.683594 353.542969 65.148438 384.511719 68.285156 415.371094 C 74.691406 413.441406 81.179688 412.242188 87.582031 411.789062 C 89.609375 411.644531 91.664062 411.570312 93.769531 411.570312 " fill-opacity="1" fill-rule="nonzero"/><path fill="#000000" d="M 121.296875 446.433594 C 120.6875 446.164062 120.082031 445.890625 119.472656 445.648438 C 111.972656 442.527344 104.726562 440.792969 97.347656 440.351562 C 96.128906 440.285156 94.953125 440.246094 93.777344 440.246094 C 88.851562 440.246094 83.855469 440.875 78.960938 442.132812 C 76.847656 442.671875 74.742188 443.339844 72.59375 444.152344 C 82.582031 494.675781 104.945312 541.832031 137.550781 581.386719 C 136.367188 577.714844 135.238281 574.035156 134.179688 570.335938 C 123.078125 531.328125 118.75 489.652344 121.296875 446.433594 " fill-opacity="1" fill-rule="nonzero"/></svg>