<svg xmlns="http://www.w3.org/2000/svg" xmlns:xlink="http://www.w3.org/1999/xlink" width="1000" zoomAndPan="magnify" viewBox="0 0 750 749.999995" height="1000" preserveAspectRatio="xMidYMid meet" version="1.0"><path fill="#ffffff" d="M 251.816406 661.511719 C 262.75 652.902344 276.128906 650.808594 289.15625 655.578125 C 311.492188 663.835938 335.105469 669.539062 359.882812 672.5625 C 360.347656 672.679688 360.929688 672.792969 361.511719 672.792969 C 531.464844 692.105469 684.898438 569.847656 704.207031 399.777344 C 723.519531 229.941406 601.375 76.390625 431.308594 57.082031 C 261.355469 37.886719 107.921875 160.03125 88.609375 329.980469 C 81.515625 393.03125 94.078125 453.519531 121.066406 505.984375 C 133.046875 529.363281 147.703125 551.351562 165.152344 571.007812 C 176.4375 583.6875 178.296875 601.371094 169.804688 616.144531 C 156.777344 638.828125 141.65625 655.347656 125.371094 668.140625 C 118.621094 673.375 116.179688 682.101562 119.203125 690.011719 C 122.113281 698.039062 129.558594 703.039062 138.046875 702.691406 C 176.320312 701.179688 214.359375 690.941406 251.816406 661.511719 Z M 427.234375 264.257812 Z M 427.234375 264.257812 L 539.839844 264.257812 L 539.839844 343.941406 C 539.839844 386.980469 534.023438 415.015625 521.460938 432.117188 C 507.035156 451.660156 485.164062 455.496094 465.621094 456.777344 L 459.339844 457.242188 L 459.339844 401.636719 L 459.457031 400.941406 C 475.859375 399.542969 488.539062 394.195312 489.703125 344.753906 L 427.234375 344.753906 Z M 282.410156 264.257812 Z M 282.410156 264.257812 L 395.011719 264.257812 L 395.011719 343.941406 C 395.011719 386.980469 389.429688 415.015625 376.867188 432.117188 C 362.441406 451.660156 340.804688 455.496094 321.261719 456.777344 L 314.632812 457.242188 L 314.632812 401.636719 L 313.46875 400.941406 C 329.871094 399.542969 343.015625 394.195312 344.0625 344.753906 L 282.410156 344.753906 Z M 282.410156 264.257812 " fill-opacity="1" fill-rule="nonzero"/></svg>