<svg xmlns="http://www.w3.org/2000/svg" xmlns:xlink="http://www.w3.org/1999/xlink" width="1000" zoomAndPan="magnify" viewBox="0 0 750 749.999995" height="1000" preserveAspectRatio="xMidYMid meet" version="1.0"><defs><clipPath id="5f79db74b2"><path d="M 40.046875 58.050781 L 709.796875 58.050781 L 709.796875 691.800781 L 40.046875 691.800781 Z M 40.046875 58.050781 " clip-rule="nonzero"/></clipPath></defs><g clip-path="url(#5f79db74b2)"><path fill="#ffffff" d="M 685.988281 309.15625 L 662.066406 309.15625 L 662.066406 285.238281 C 662.066406 258.816406 640.648438 237.398438 614.226562 237.398438 L 398.933594 237.398438 L 398.933594 197.34375 C 426.796875 187.480469 446.773438 160.984375 446.773438 129.75 C 446.773438 90.121094 414.644531 57.988281 375.011719 57.988281 C 335.382812 57.988281 303.25 90.121094 303.25 129.75 C 303.25 160.984375 323.242188 187.480469 351.09375 197.34375 L 351.09375 237.398438 L 135.847656 237.398438 C 109.425781 237.398438 88.007812 258.816406 88.007812 285.238281 L 88.007812 309.15625 L 64.085938 309.15625 C 50.878906 309.15625 40.167969 319.867188 40.167969 333.078125 L 40.128906 572.292969 C 40.128906 585.503906 50.839844 596.210938 64.050781 596.210938 L 87.984375 596.210938 L 87.984375 644.054688 C 87.984375 670.472656 109.402344 691.894531 135.824219 691.894531 L 614.25 691.894531 C 640.671875 691.894531 662.089844 670.472656 662.089844 644.054688 L 662.089844 596.210938 L 686.011719 596.210938 C 699.222656 596.210938 709.933594 585.503906 709.933594 572.292969 L 709.933594 333.078125 C 709.933594 319.867188 699.222656 309.15625 686.011719 309.15625 Z M 458.738281 345.042969 L 506.578125 345.042969 L 506.578125 464.644531 L 458.738281 464.644531 Z M 243.445312 345.042969 L 291.285156 345.042969 L 291.285156 464.644531 L 243.445312 464.644531 Z M 542.453125 608.179688 L 207.570312 608.179688 L 207.570312 560.339844 L 542.464844 560.339844 L 542.464844 608.179688 Z M 542.453125 608.179688 " fill-opacity="1" fill-rule="nonzero"/></g></svg>