<svg xmlns="http://www.w3.org/2000/svg" xmlns:xlink="http://www.w3.org/1999/xlink" width="1000" zoomAndPan="magnify" viewBox="0 0 750 749.999995" height="1000" preserveAspectRatio="xMidYMid meet" version="1.0"><defs><g/></defs><g fill="#ffffff" fill-opacity="1"><g transform="translate(13.317469, 494.132462)"><g><path d="M 157.109375 66.09375 C 142.597656 66.09375 130.226562 65.164062 120 63.3125 C 109.78125 61.46875 101.109375 58.5 93.984375 54.40625 C 86.460938 50.0625 80.457031 45.050781 75.96875 39.375 C 71.488281 33.707031 67.929688 26.453125 65.296875 17.609375 C 62.660156 8.898438 60.878906 -0.296875 59.953125 -9.984375 C 59.023438 -19.679688 58.5625 -31.921875 58.5625 -46.703125 C 58.5625 -54.484375 58.628906 -60.8125 58.765625 -65.6875 L 58.765625 -80.53125 C 58.765625 -89.769531 58.234375 -96.363281 57.171875 -100.3125 C 56.117188 -104.269531 54.078125 -106.910156 51.046875 -108.234375 C 48.015625 -109.554688 42.867188 -110.21875 35.609375 -110.21875 L 12.859375 -110.21875 L 12.859375 -136.921875 L 35.609375 -136.921875 C 42.867188 -136.921875 48.015625 -137.578125 51.046875 -138.890625 C 54.078125 -140.210938 56.117188 -142.851562 57.171875 -146.8125 C 58.234375 -150.769531 58.765625 -157.367188 58.765625 -166.609375 L 58.765625 -181.4375 C 58.628906 -186.457031 58.5625 -192.859375 58.5625 -200.640625 C 58.5625 -215.410156 59.023438 -227.644531 59.953125 -237.34375 C 60.878906 -247.039062 62.660156 -256.242188 65.296875 -264.953125 C 67.929688 -273.785156 71.488281 -281.003906 75.96875 -286.609375 C 80.457031 -292.210938 86.460938 -297.191406 93.984375 -301.546875 C 101.109375 -305.640625 109.78125 -308.609375 120 -310.453125 C 130.226562 -312.296875 142.597656 -313.21875 157.109375 -313.21875 L 157.109375 -296.203125 C 138.378906 -296.203125 124.660156 -291.984375 115.953125 -283.546875 C 112.390625 -280.117188 109.648438 -274.179688 107.734375 -265.734375 C 105.828125 -257.296875 104.609375 -248.128906 104.078125 -238.234375 C 103.546875 -230.710938 103.28125 -218.179688 103.28125 -200.640625 C 103.28125 -190.210938 103.179688 -182.03125 102.984375 -176.09375 C 102.785156 -170.164062 102.359375 -164.429688 101.703125 -158.890625 C 100.910156 -152.953125 99.921875 -148.234375 98.734375 -144.734375 C 97.546875 -141.242188 95.832031 -137.914062 93.59375 -134.75 C 91.476562 -131.84375 88.9375 -129.566406 85.96875 -127.921875 C 83 -126.273438 79.144531 -124.859375 74.40625 -123.671875 C 79.144531 -122.484375 83 -121.0625 85.96875 -119.40625 C 88.9375 -117.757812 91.476562 -115.488281 93.59375 -112.59375 C 95.832031 -109.425781 97.546875 -106.09375 98.734375 -102.59375 C 99.921875 -99.09375 100.910156 -94.441406 101.703125 -88.640625 C 102.359375 -82.972656 102.785156 -77.171875 102.984375 -71.234375 C 103.179688 -65.296875 103.28125 -57.117188 103.28125 -46.703125 C 103.28125 -30.335938 103.476562 -18.003906 103.875 -9.703125 C 104.144531 -3.765625 104.507812 1.015625 104.96875 4.640625 C 105.425781 8.273438 106.1875 12.53125 107.25 17.40625 C 108.039062 21.363281 109.03125 24.53125 110.21875 26.90625 C 111.40625 29.28125 113.25 32.179688 115.75 35.609375 C 117.59375 38.117188 119.703125 40.097656 122.078125 41.546875 C 124.453125 43.003906 127.617188 44.390625 131.578125 45.703125 C 137.648438 47.953125 146.160156 49.078125 157.109375 49.078125 Z M 157.109375 66.09375 "/></g></g><g transform="translate(183.882597, 494.132462)"><g><path d="M 9.703125 -22.15625 L 48.28125 -22.15625 L 48.28125 -190.15625 L 9.703125 -190.15625 L 9.703125 -212.3125 L 84.6875 -215.671875 L 89.640625 -172.546875 C 92.273438 -180.328125 96.097656 -187.285156 101.109375 -193.421875 C 106.117188 -199.554688 111.789062 -204.398438 118.125 -207.953125 C 130.257812 -214.679688 143.054688 -218.046875 156.515625 -218.046875 C 161.660156 -218.046875 166.015625 -217.816406 169.578125 -217.359375 C 173.140625 -216.898438 177.160156 -215.941406 181.640625 -214.484375 C 186.648438 -212.773438 190.96875 -210.46875 194.59375 -207.5625 C 198.226562 -204.65625 201.757812 -200.566406 205.1875 -195.296875 C 208.488281 -190.015625 211.257812 -183.550781 213.5 -175.90625 C 219.695312 -190.019531 228.300781 -200.570312 239.3125 -207.5625 C 250.332031 -214.550781 262.832031 -218.046875 276.8125 -218.046875 C 281.300781 -218.046875 285.289062 -217.847656 288.78125 -217.453125 C 292.28125 -217.054688 296.140625 -216.203125 300.359375 -214.890625 C 305.109375 -213.429688 309.296875 -211.582031 312.921875 -209.34375 C 316.554688 -207.101562 320.285156 -204.070312 324.109375 -200.25 C 328.066406 -196.15625 331.296875 -191.503906 333.796875 -186.296875 C 336.304688 -181.085938 338.421875 -174.65625 340.140625 -167 C 341.722656 -159.351562 342.515625 -150.710938 342.515625 -141.078125 L 342.515625 -22.15625 L 378.921875 -22.15625 L 378.921875 0 L 267.90625 0 L 267.90625 -22.15625 L 299.96875 -22.15625 L 299.96875 -140.6875 C 299.96875 -157.4375 296.671875 -170 290.078125 -178.375 C 283.484375 -186.75 274.179688 -190.9375 262.171875 -190.9375 C 253.066406 -190.9375 245.148438 -188.957031 238.421875 -185 C 231.703125 -181.050781 226.5625 -175.578125 223 -168.578125 C 219.4375 -161.585938 217.65625 -153.609375 217.65625 -144.640625 L 217.65625 -22.15625 L 251.6875 -22.15625 L 251.6875 0 L 141.078125 0 L 141.078125 -22.15625 L 175.109375 -22.15625 L 175.109375 -140.6875 C 175.109375 -157.4375 171.8125 -170 165.21875 -178.375 C 158.625 -186.75 149.328125 -190.9375 137.328125 -190.9375 C 129.929688 -190.9375 123.363281 -189.519531 117.625 -186.6875 C 111.894531 -183.851562 107.3125 -180.0625 103.875 -175.3125 C 100.707031 -170.820312 98.101562 -165.242188 96.0625 -158.578125 C 94.019531 -151.921875 92.601562 -145.097656 91.8125 -138.109375 C 91.15625 -130.585938 90.828125 -123.203125 90.828125 -115.953125 L 90.828125 -22.15625 L 124.859375 -22.15625 L 124.859375 0 L 9.703125 0 Z M 9.703125 -22.15625 "/></g></g><g transform="translate(565.576484, 494.132462)"><g><path d="M 14.046875 49.078125 C 24.992188 49.078125 33.503906 47.953125 39.578125 45.703125 C 43.535156 44.390625 46.703125 43.003906 49.078125 41.546875 C 51.453125 40.097656 53.5625 38.117188 55.40625 35.609375 C 57.90625 32.179688 59.75 29.28125 60.9375 26.90625 C 62.125 24.53125 63.113281 21.363281 63.90625 17.40625 C 64.96875 12.53125 65.726562 8.273438 66.1875 4.640625 C 66.644531 1.015625 67.007812 -3.765625 67.28125 -9.703125 C 67.675781 -18.003906 67.875 -30.335938 67.875 -46.703125 C 67.875 -63.847656 69.125 -77.628906 71.625 -88.046875 C 74.132812 -98.472656 78.125 -106.488281 83.59375 -112.09375 C 89.070312 -117.695312 96.425781 -121.554688 105.65625 -123.671875 C 96.425781 -125.773438 89.070312 -129.628906 83.59375 -135.234375 C 78.125 -140.847656 74.132812 -148.863281 71.625 -159.28125 C 69.125 -169.707031 67.875 -183.492188 67.875 -200.640625 C 67.875 -218.179688 67.640625 -231.039062 67.171875 -239.21875 C 66.710938 -247.394531 65.625 -255.773438 63.90625 -264.359375 C 62.195312 -272.796875 59.523438 -278.957031 55.890625 -282.84375 C 52.265625 -286.738281 46.828125 -290.003906 39.578125 -292.640625 C 33.109375 -295.015625 24.597656 -296.203125 14.046875 -296.203125 L 14.046875 -313.21875 C 37.265625 -313.21875 56.128906 -310.453125 70.640625 -304.921875 C 83.171875 -300.035156 93.0625 -291.195312 100.3125 -278.40625 C 106.125 -268.113281 109.820312 -252.613281 111.40625 -231.90625 C 112.0625 -222.007812 112.390625 -211.585938 112.390625 -200.640625 C 112.390625 -184.804688 112.585938 -173.394531 112.984375 -166.40625 C 113.242188 -161.132812 113.601562 -157.242188 114.0625 -154.734375 C 114.53125 -152.222656 115.289062 -149.582031 116.34375 -146.8125 C 117.394531 -144.175781 118.484375 -142.328125 119.609375 -141.265625 C 120.734375 -140.210938 122.484375 -139.03125 124.859375 -137.71875 C 126.703125 -136.664062 128.742188 -136.003906 130.984375 -135.734375 C 133.234375 -135.472656 136.53125 -135.34375 140.875 -135.34375 L 158.296875 -135.34375 L 158.296875 -111.796875 L 140.875 -111.796875 C 136.53125 -111.796875 133.234375 -111.660156 130.984375 -111.390625 C 128.742188 -111.128906 126.703125 -110.539062 124.859375 -109.625 C 122.484375 -108.300781 120.734375 -107.109375 119.609375 -106.046875 C 118.484375 -104.992188 117.394531 -103.21875 116.34375 -100.71875 C 115.289062 -97.8125 114.53125 -95.101562 114.0625 -92.59375 C 113.601562 -90.09375 113.242188 -86.203125 112.984375 -80.921875 C 112.585938 -73.929688 112.390625 -62.523438 112.390625 -46.703125 C 112.390625 -31.921875 111.925781 -19.679688 111 -9.984375 C 110.082031 -0.296875 108.367188 8.898438 105.859375 17.609375 C 103.347656 26.316406 99.816406 33.539062 95.265625 39.28125 C 90.722656 45.019531 84.691406 50.0625 77.171875 54.40625 C 70.179688 58.5 61.539062 61.46875 51.25 63.3125 C 40.957031 65.164062 28.554688 66.09375 14.046875 66.09375 Z M 14.046875 49.078125 "/></g></g></g></svg>