<svg xmlns="http://www.w3.org/2000/svg" xmlns:xlink="http://www.w3.org/1999/xlink" width="1000" zoomAndPan="magnify" viewBox="0 0 750 749.999995" height="1000" preserveAspectRatio="xMidYMid meet" version="1.0"><path fill="#000000" d="M 251.800781 661.457031 C 262.734375 652.847656 276.109375 650.753906 289.136719 655.523438 C 311.46875 663.78125 335.082031 669.480469 359.855469 672.507812 C 360.324219 672.621094 360.902344 672.738281 361.484375 672.738281 C 531.421875 692.046875 684.84375 569.800781 704.152344 399.746094 C 723.460938 229.925781 601.328125 76.386719 431.273438 57.078125 C 261.339844 37.886719 107.917969 160.019531 88.609375 329.957031 C 81.511719 393 94.074219 453.484375 121.0625 505.941406 C 133.042969 529.320312 147.699219 551.304688 165.144531 570.960938 C 176.425781 583.640625 178.289062 601.320312 169.796875 616.09375 C 156.769531 638.773438 141.648438 655.292969 125.363281 668.085938 C 118.617188 673.320312 116.175781 682.042969 119.199219 689.953125 C 122.109375 697.980469 129.550781 702.980469 138.042969 702.632812 C 176.3125 701.121094 214.347656 690.882812 251.800781 661.457031 Z M 427.203125 264.238281 Z M 427.203125 264.238281 L 539.796875 264.238281 L 539.796875 343.914062 C 539.796875 386.953125 533.980469 414.984375 521.421875 432.082031 C 506.996094 451.621094 485.128906 455.460938 465.589844 456.742188 L 459.308594 457.207031 L 459.308594 401.605469 L 459.421875 400.910156 C 475.824219 399.511719 488.503906 394.164062 489.664062 344.730469 L 427.203125 344.730469 Z M 282.390625 264.238281 Z M 282.390625 264.238281 L 394.984375 264.238281 L 394.984375 343.914062 C 394.984375 386.953125 389.402344 414.984375 376.839844 432.082031 C 362.417969 451.621094 340.78125 455.460938 321.242188 456.742188 L 314.609375 457.207031 L 314.609375 401.605469 L 313.449219 400.910156 C 329.847656 399.511719 342.992188 394.164062 344.039062 344.730469 L 282.390625 344.730469 Z M 282.390625 264.238281 " fill-opacity="1" fill-rule="nonzero"/></svg>