<svg xmlns="http://www.w3.org/2000/svg" xmlns:xlink="http://www.w3.org/1999/xlink" width="1000" zoomAndPan="magnify" viewBox="0 0 750 749.999995" height="1000" preserveAspectRatio="xMidYMid meet" version="1.0"><defs><clipPath id="1d3df5cd52"><path d="M 40.046875 27.792969 L 709.796875 27.792969 L 709.796875 661.542969 L 40.046875 661.542969 Z M 40.046875 27.792969 " clip-rule="nonzero"/></clipPath></defs><g clip-path="url(#1d3df5cd52)"><path fill="#000000" d="M 685.839844 278.84375 L 661.925781 278.84375 L 661.925781 254.929688 C 661.925781 228.511719 640.511719 207.097656 614.097656 207.097656 L 398.851562 207.097656 L 398.851562 167.054688 C 426.707031 157.191406 446.679688 130.703125 446.679688 99.476562 C 446.679688 59.855469 414.558594 27.730469 374.9375 27.730469 C 335.316406 27.730469 303.191406 59.855469 303.191406 99.476562 C 303.191406 130.703125 323.175781 157.191406 351.019531 167.054688 L 351.019531 207.097656 L 135.824219 207.097656 C 109.410156 207.097656 87.996094 228.511719 87.996094 254.929688 L 87.996094 278.84375 L 64.082031 278.84375 C 50.875 278.84375 40.167969 289.550781 40.167969 302.757812 L 40.128906 541.917969 C 40.128906 555.125 50.835938 565.832031 64.042969 565.832031 L 87.972656 565.832031 L 87.972656 613.664062 C 87.972656 640.078125 109.386719 661.492188 135.800781 661.492188 L 614.121094 661.492188 C 640.535156 661.492188 661.949219 640.078125 661.949219 613.664062 L 661.949219 565.832031 L 685.863281 565.832031 C 699.070312 565.832031 709.78125 555.125 709.78125 541.917969 L 709.78125 302.757812 C 709.78125 289.550781 699.070312 278.84375 685.863281 278.84375 Z M 458.644531 314.722656 L 506.472656 314.722656 L 506.472656 434.296875 L 458.644531 434.296875 Z M 243.398438 314.722656 L 291.226562 314.722656 L 291.226562 434.296875 L 243.398438 434.296875 Z M 542.339844 577.796875 L 207.53125 577.796875 L 207.53125 529.96875 L 542.351562 529.96875 L 542.351562 577.796875 Z M 542.339844 577.796875 " fill-opacity="1" fill-rule="nonzero"/></g></svg>