<svg xmlns="http://www.w3.org/2000/svg" xmlns:xlink="http://www.w3.org/1999/xlink" width="1000" zoomAndPan="magnify" viewBox="0 0 750 749.999995" height="1000" preserveAspectRatio="xMidYMid meet" version="1.0"><defs><clipPath id="84b7d25923"><path d="M 105 12.066406 L 645 12.066406 L 645 738.066406 L 105 738.066406 Z M 105 12.066406 " clip-rule="nonzero"/></clipPath></defs><g clip-path="url(#84b7d25923)"><path fill="#000000" d="M 520.308594 609.640625 L 480.859375 644.667969 L 480.859375 532.277344 C 480.859375 528.035156 478.796875 524.046875 475.34375 521.574219 L 388.792969 459.761719 L 388.792969 264.25 L 427.226562 245.039062 C 450.921875 269.148438 494.785156 250.894531 494.007812 216.667969 C 492.035156 161.386719 410.34375 166.464844 415.589844 221.453125 L 369.777344 244.363281 C 365.316406 246.59375 362.503906 251.136719 362.503906 256.128906 L 362.503906 466.539062 C 362.503906 470.78125 364.566406 474.765625 368.019531 477.238281 L 454.570312 539.050781 L 454.570312 668.035156 L 415.117188 703.0625 L 415.117188 545.441406 C 415.117188 538.179688 409.242188 532.289062 401.96875 532.289062 L 323.066406 532.289062 L 323.066406 476.039062 C 346.007812 463.507812 336.421875 426.589844 309.914062 427.085938 C 283.410156 426.601562 273.820312 463.519531 296.765625 476.039062 L 296.765625 545.441406 C 296.765625 552.699219 302.644531 558.589844 309.914062 558.589844 L 388.816406 558.589844 L 388.816406 726.40625 L 375.667969 738.078125 L 336.214844 703.050781 L 336.214844 624.332031 C 336.992188 616.886719 326.3125 609.652344 322.121094 604.792969 C 322.640625 602.695312 323.003906 600.476562 323.066406 598.03125 C 322.195312 563.351562 271.335938 563.339844 270.464844 598.03125 C 270.972656 618.34375 288.609375 626.667969 303.320312 623.179688 L 309.914062 629.773438 L 309.914062 679.695312 C 304.714844 674.773438 193.429688 577.132812 193.417969 575.316406 L 266.621094 502.109375 C 269.082031 499.648438 270.476562 496.304688 270.476562 492.8125 L 270.476562 420.480469 L 317.816406 384.96875 C 321.125 382.484375 323.078125 378.59375 323.078125 374.449219 L 323.078125 345.734375 C 364.226562 331.058594 354.117188 269.609375 309.929688 269.246094 C 265.738281 269.609375 255.628906 331.058594 296.777344 345.734375 L 296.777344 367.878906 L 249.4375 403.390625 C 246.128906 405.875 244.175781 409.765625 244.175781 413.910156 L 244.175781 487.371094 L 176.546875 555.003906 C 154.753906 525.597656 142.171875 490.050781 138.65625 453.363281 L 168.144531 453.363281 L 170.75 463.761719 C 157.359375 479.992188 170.328125 506.644531 191.574219 505.964844 C 223.863281 505.660156 227.097656 458.515625 195.355469 453.738281 C 192.398438 444.25 192.242188 426.808594 178.421875 427.050781 L 135.140625 427.050781 L 129.882812 387.597656 L 204.722656 387.597656 C 211.996094 387.597656 217.875 381.707031 217.875 374.449219 L 217.875 290.941406 L 328.421875 241.804688 C 344.070312 234.558594 333.683594 211.007812 317.734375 217.769531 C 317.734375 217.769531 199.378906 270.371094 199.378906 270.371094 C 194.628906 272.480469 191.574219 277.195312 191.574219 282.382812 L 191.574219 361.285156 L 126.378906 361.285156 L 119.214844 307.59375 L 145.394531 281.414062 C 183.78125 289.910156 191.417969 231.660156 152.121094 229.78125 C 135.191406 229.515625 122.003906 246.53125 126.804688 262.808594 L 114.839844 274.773438 L 105.328125 203.480469 L 283.625 203.480469 C 290.898438 203.480469 296.777344 197.589844 296.777344 190.332031 L 296.777344 124.578125 C 296.488281 107.308594 270.765625 107.28125 270.476562 124.578125 L 270.476562 177.179688 L 145.445312 177.179688 C 199.996094 149.375 252.683594 114.894531 304.425781 73.394531 L 336.230469 115.816406 L 336.230469 190.332031 C 336.507812 207.589844 362.238281 207.636719 362.53125 190.332031 C 362.53125 190.332031 362.53125 111.425781 362.53125 111.425781 C 362.53125 108.578125 361.609375 105.816406 359.898438 103.539062 L 324.789062 56.703125 C 341.585938 42.546875 358.300781 27.59375 374.953125 11.882812 C 394.285156 33.445312 414.550781 53.566406 435.785156 72.183594 L 392.683594 115.28125 C 390.222656 117.742188 388.832031 121.085938 388.832031 124.578125 L 388.832031 164.027344 C 389.121094 181.300781 414.839844 181.324219 415.132812 164.027344 C 415.132812 164.027344 415.132812 130.019531 415.132812 130.019531 L 455.890625 89.257812 C 472.433594 102.675781 489.597656 115.085938 507.195312 126.773438 L 507.195312 259.753906 L 437.285156 283.0625 C 431.917969 284.855469 428.292969 289.875 428.292969 295.535156 L 428.292969 413.886719 C 428.292969 418.601562 430.828125 422.964844 434.921875 425.304688 L 520.347656 474.125 L 520.347656 609.617188 Z M 592.582031 415.644531 L 500.53125 363.042969 C 485.390625 354.703125 472.605469 377.042969 487.488281 385.878906 C 487.488281 385.878906 572.910156 434.699219 572.910156 434.699219 L 572.910156 453.375 C 572.910156 459.035156 576.535156 464.066406 581.90625 465.847656 L 609.332031 474.996094 C 601.308594 517.9375 579.394531 557.171875 546.609375 586.296875 L 546.609375 466.523438 C 546.609375 461.808594 544.078125 457.445312 539.980469 455.109375 L 454.558594 406.289062 L 454.558594 305.046875 L 524.46875 281.742188 C 529.835938 279.945312 533.460938 274.929688 533.460938 269.269531 L 533.460938 143.644531 C 564.234375 162.03125 596.582031 177.664062 630.203125 190.925781 L 567.722656 217.734375 C 562.902344 219.804688 559.761719 224.558594 559.761719 229.816406 L 559.761719 299.242188 L 489.851562 322.550781 C 475.851562 327.035156 479.488281 348.414062 494.007812 348.183594 C 495.378906 348.183594 496.785156 347.964844 498.167969 347.503906 L 577.070312 321.203125 C 582.4375 319.410156 586.0625 314.390625 586.0625 308.730469 L 586.0625 238.496094 L 644.6875 213.347656 L 626.703125 348.183594 L 595.601562 348.183594 C 591.636719 340.839844 584.109375 335.3125 572.898438 335.03125 C 538.210938 335.90625 538.222656 386.761719 572.898438 387.632812 C 584.097656 387.355469 591.625 381.828125 595.601562 374.484375 L 623.199219 374.484375 L 613.308594 448.613281 L 599.199219 443.910156 C 598.59375 435.65625 602.109375 420.175781 592.570312 415.667969 Z M 592.582031 415.644531 " fill-opacity="1" fill-rule="nonzero"/></g></svg>