<svg xmlns="http://www.w3.org/2000/svg" xmlns:xlink="http://www.w3.org/1999/xlink" width="1000" zoomAndPan="magnify" viewBox="0 0 750 749.999995" height="1000" preserveAspectRatio="xMidYMid meet" version="1.0"><defs><clipPath id="2cacf867d1"><path d="M 105 12.066406 L 645 12.066406 L 645 738 L 105 738 Z M 105 12.066406 " clip-rule="nonzero"/></clipPath></defs><g clip-path="url(#2cacf867d1)"><path fill="#ffffff" d="M 520.230469 609.523438 L 480.785156 644.546875 L 480.785156 532.175781 C 480.785156 527.933594 478.726562 523.949219 475.273438 521.476562 L 388.738281 459.675781 L 388.738281 264.203125 L 427.164062 244.996094 C 450.855469 269.097656 494.710938 250.847656 493.933594 216.628906 C 491.957031 161.359375 410.285156 166.433594 415.53125 221.414062 L 369.726562 244.316406 C 365.265625 246.546875 362.453125 251.089844 362.453125 256.082031 L 362.453125 466.449219 C 362.453125 470.691406 364.515625 474.675781 367.96875 477.148438 L 454.503906 538.949219 L 454.503906 667.910156 L 415.058594 702.929688 L 415.058594 545.335938 C 415.058594 538.078125 409.179688 532.1875 401.910156 532.1875 L 323.023438 532.1875 L 323.023438 475.949219 C 345.960938 463.417969 336.378906 426.507812 309.875 427.003906 C 283.375 426.519531 273.789062 463.433594 296.726562 475.949219 L 296.726562 545.335938 C 296.726562 552.59375 302.605469 558.484375 309.875 558.484375 L 388.761719 558.484375 L 388.761719 726.269531 L 375.613281 737.9375 L 336.171875 702.917969 L 336.171875 624.210938 C 336.945312 616.769531 326.269531 609.535156 322.078125 604.675781 C 322.597656 602.582031 322.960938 600.363281 323.023438 597.914062 C 322.152344 563.246094 271.304688 563.234375 270.433594 597.914062 C 270.941406 618.226562 288.574219 626.550781 303.285156 623.058594 L 309.875 629.652344 L 309.875 679.566406 C 304.675781 674.644531 193.410156 577.023438 193.398438 575.207031 L 266.589844 502.015625 C 269.050781 499.554688 270.445312 496.210938 270.445312 492.722656 L 270.445312 420.402344 L 317.777344 384.894531 C 321.085938 382.410156 323.035156 378.523438 323.035156 374.378906 L 323.035156 345.671875 C 364.175781 330.996094 354.070312 269.558594 309.886719 269.195312 C 265.707031 269.558594 255.601562 330.996094 296.738281 345.671875 L 296.738281 367.808594 L 249.40625 403.316406 C 246.097656 405.800781 244.148438 409.6875 244.148438 413.832031 L 244.148438 487.28125 L 176.53125 554.898438 C 154.742188 525.5 142.164062 489.957031 138.648438 453.277344 L 168.132812 453.277344 L 170.738281 463.675781 C 157.347656 479.898438 170.3125 506.546875 191.558594 505.867188 C 223.839844 505.566406 227.074219 458.425781 195.335938 453.652344 C 192.382812 444.164062 192.222656 426.726562 178.410156 426.96875 L 135.136719 426.96875 L 129.878906 387.527344 L 204.703125 387.527344 C 211.976562 387.527344 217.851562 381.636719 217.851562 374.378906 L 217.851562 290.886719 L 328.378906 241.761719 C 344.023438 234.511719 333.636719 210.96875 317.691406 217.730469 C 317.691406 217.730469 199.359375 270.320312 199.359375 270.320312 C 194.609375 272.429688 191.558594 277.144531 191.558594 282.332031 L 191.558594 361.21875 L 126.375 361.21875 L 119.214844 307.535156 L 145.386719 281.359375 C 183.765625 289.855469 191.398438 231.617188 152.113281 229.738281 C 135.183594 229.472656 122 246.484375 126.800781 262.761719 L 114.839844 274.71875 L 105.328125 203.445312 L 283.59375 203.445312 C 290.863281 203.445312 296.738281 197.554688 296.738281 190.296875 L 296.738281 124.554688 C 296.449219 107.289062 270.734375 107.265625 270.445312 124.554688 L 270.445312 177.148438 L 145.4375 177.148438 C 199.980469 149.347656 252.65625 114.875 304.386719 73.382812 L 336.183594 115.796875 L 336.183594 190.296875 C 336.460938 207.550781 362.1875 207.601562 362.480469 190.296875 C 362.480469 190.296875 362.480469 111.410156 362.480469 111.410156 C 362.480469 108.5625 361.558594 105.796875 359.847656 103.519531 L 324.746094 56.695312 C 341.539062 42.542969 358.25 27.589844 374.898438 11.882812 C 394.226562 33.441406 414.488281 53.558594 435.71875 72.171875 L 392.628906 115.261719 C 390.167969 117.722656 388.773438 121.066406 388.773438 124.554688 L 388.773438 164 C 389.066406 181.269531 414.78125 181.292969 415.070312 164 C 415.070312 164 415.070312 129.996094 415.070312 129.996094 L 455.824219 89.246094 C 472.363281 102.660156 489.523438 115.066406 507.117188 126.75 L 507.117188 259.707031 L 437.222656 283.007812 C 431.855469 284.804688 428.230469 289.820312 428.230469 295.480469 L 428.230469 413.808594 C 428.230469 418.523438 430.761719 422.886719 434.859375 425.222656 L 520.265625 474.035156 L 520.265625 609.5 Z M 592.488281 415.566406 L 500.453125 362.976562 C 485.316406 354.636719 472.535156 376.972656 487.414062 385.804688 C 487.414062 385.804688 572.820312 434.617188 572.820312 434.617188 L 572.820312 453.289062 C 572.820312 458.949219 576.445312 463.976562 581.8125 465.757812 L 609.234375 474.90625 C 601.214844 517.839844 579.304688 557.066406 546.523438 586.1875 L 546.523438 466.4375 C 546.523438 461.722656 543.992188 457.359375 539.898438 455.023438 L 454.488281 406.210938 L 454.488281 304.992188 L 524.386719 281.6875 C 529.753906 279.894531 533.378906 274.878906 533.378906 269.21875 L 533.378906 143.617188 C 564.144531 162 596.488281 177.632812 630.101562 190.890625 L 567.632812 217.695312 C 562.8125 219.765625 559.671875 224.515625 559.671875 229.777344 L 559.671875 299.1875 L 489.777344 322.488281 C 475.78125 326.972656 479.417969 348.347656 493.933594 348.117188 C 495.304688 348.117188 496.707031 347.898438 498.089844 347.441406 L 576.976562 321.144531 C 582.34375 319.351562 585.96875 314.332031 585.96875 308.675781 L 585.96875 238.453125 L 644.582031 213.308594 L 626.601562 348.117188 L 595.503906 348.117188 C 591.542969 340.773438 584.019531 335.25 572.808594 334.96875 C 538.128906 335.84375 538.140625 386.691406 572.808594 387.5625 C 584.003906 387.285156 591.53125 381.757812 595.503906 374.414062 L 623.097656 374.414062 L 613.210938 448.527344 L 599.105469 443.824219 C 598.5 435.574219 602.011719 420.097656 592.476562 415.589844 Z M 592.488281 415.566406 " fill-opacity="1" fill-rule="nonzero"/></g></svg>